<?xml version="1.0" encoding="iso-8859-1"?>
<!-- Generator: Adobe Illustrator 19.0.0, SVG Export Plug-In . SVG Version: 6.00 Build 0)  -->
<svg version="1.1" id="Layer_1" xmlns="http://www.w3.org/2000/svg" xmlns:xlink="http://www.w3.org/1999/xlink" x="0px" y="0px"
	 viewBox="0 0 512 512" style="enable-background:new 0 0 512 512;" xml:space="preserve">
<polygon style="fill:#FFCA28;" points="255.998,182.622 157.664,214.247 255.998,512 354.333,214.247 "/>
<polygon style="opacity:0.1;enable-background:new    ;" points="271.395,187.574 255.998,182.622 157.664,214.247 255.998,512 
	188.458,214.247 "/>
<path style="fill:#F473B4;" d="M255.998,0c-83.64,0-151.444,64.882-151.444,144.917c0,9.841,1.025,19.453,2.98,28.742
	c4.98,23.677,25.936,40.587,50.131,40.587h53.018v78.25c0,10.182,8.254,18.435,18.435,18.435s18.435-8.254,18.435-18.435v-78.25
	h29.754v37.192c0,10.181,8.254,18.435,18.435,18.435c10.181,0,18.435-8.254,18.435-18.435v-37.192h40.156
	c24.196,0,45.151-16.911,50.131-40.587c1.954-9.289,2.98-18.901,2.98-28.742C407.443,64.882,339.639,0,255.998,0z"/>
<g style="opacity:0.1;">
	<path d="M138.328,173.659c-1.954-9.289-2.98-18.901-2.98-28.742c0-75.061,59.639-136.794,136.047-144.176
		C266.332,0.251,261.196,0,255.998,0c-83.64,0-151.444,64.882-151.444,144.917c0,9.841,1.025,19.453,2.98,28.742
		c4.98,23.677,25.936,40.588,50.131,40.588h30.794C164.263,214.247,143.307,197.337,138.328,173.659z"/>
</g>
<g>
	<path style="fill:#E24B9E;" d="M255.994,170.849c-10.261,0-19.637-2.623-25.727-7.197c-5.921-4.448-7.116-12.852-2.669-18.773
		c4.447-5.922,12.852-7.114,18.773-2.669c0.542,0.374,3.83,1.823,9.623,1.823c5.794,0,9.082-1.45,9.646-1.838
		c5.921-4.447,14.314-3.246,18.763,2.676c4.447,5.921,3.242,14.334-2.679,18.78C275.633,168.225,266.255,170.849,255.994,170.849z"
		/>
	<circle style="fill:#E24B9E;" cx="209.551" cy="132.978" r="11.034"/>
	<circle style="fill:#E24B9E;" cx="302.446" cy="132.978" r="11.034"/>
</g>
<g>
</g>
<g>
</g>
<g>
</g>
<g>
</g>
<g>
</g>
<g>
</g>
<g>
</g>
<g>
</g>
<g>
</g>
<g>
</g>
<g>
</g>
<g>
</g>
<g>
</g>
<g>
</g>
<g>
</g>
</svg>
